<svg viewBox="0 0 400 400" xmlns="http://www.w3.org/2000/svg">
  <!-- Outer purple decorative frame with castle-like crenellations -->
  <g fill="#8B4A9C" stroke="#8B4A9C" stroke-width="3">
    <!-- Top crenellated border -->
    <path d="M50 50 L70 50 L70 35 L90 35 L90 50 L110 50 L110 35 L130 35 L130 50 L150 50 L150 35 L170 35 L170 50 L190 50 L190 35 L210 35 L210 50 L230 50 L230 35 L250 35 L250 50 L270 50 L270 35 L290 35 L290 50 L310 50 L310 35 L330 35 L330 50 L350 50"/>
    
    <!-- Left side with crenellations -->
    <path d="M50 50 L50 70 L35 70 L35 90 L50 90 L50 110 L35 110 L35 130 L50 130 L50 150 L35 150 L35 170 L50 170 L50 190 L35 190 L35 210 L50 210 L50 230 L35 230 L35 250 L50 250 L50 270 L35 270 L35 290 L50 290 L50 310 L35 310 L35 330 L50 330 L50 350"/>
    
    <!-- Right side with crenellations -->
    <path d="M350 50 L350 70 L365 70 L365 90 L350 90 L350 110 L365 110 L365 130 L350 130 L350 150 L365 150 L365 170 L350 170 L350 190 L365 190 L365 210 L350 210 L350 230 L365 230 L365 250 L350 250 L350 270 L365 270 L365 290 L350 290 L350 310 L365 310 L365 330 L350 330 L350 350"/>
    
    <!-- Bottom crenellated border -->
    <path d="M50 350 L70 350 L70 365 L90 365 L90 350 L110 350 L110 365 L130 365 L130 350 L150 350 L150 365 L170 365 L170 350 L190 350 L190 365 L210 365 L210 350 L230 350 L230 365 L250 365 L250 350 L270 350 L270 365 L290 365 L290 350 L310 350 L310 365 L330 365 L330 350 L350 350"/>
    
    <!-- Corner purple dots -->
    <circle cx="200" cy="30" r="8"/>
    <circle cx="30" cy="200" r="8"/>
    <circle cx="370" cy="200" r="8"/>
    <circle cx="200" cy="370" r="8"/>
    
    <!-- Additional decorative purple dots -->
    <circle cx="80" cy="80" r="5"/>
    <circle cx="320" cy="80" r="5"/>
    <circle cx="80" cy="320" r="5"/>
    <circle cx="320" cy="320" r="5"/>
  </g>
  
  <!-- Main black circular border -->
  <circle cx="200" cy="200" r="140" fill="white" stroke="#2C3E50" stroke-width="5"/>
  
  <!-- Outer Arabic text curve (top) -->
  <defs>
    <path id="top-text-path" d="M 80,200 A 120,120 0 0,1 320,200"/>
  </defs>
  <text font-family="Arial, sans-serif" font-size="16" font-weight="bold" fill="#2C3E50" text-anchor="middle">
    <textPath href="#top-text-path" startOffset="50%">مطرانية شبرا الخيمة وتوابعها</textPath>
  </text>
  
  <!-- Inner Arabic text curve (bottom) -->
  <defs>
    <path id="bottom-text-path" d="M 320,200 A 120,120 0 0,1 80,200"/>
  </defs>
  <text font-family="Arial, sans-serif" font-size="16" font-weight="bold" fill="#2C3E50" text-anchor="middle">
    <textPath href="#bottom-text-path" startOffset="50%">الأمانة العامة للكشافة والمرشدات</textPath>
  </text>
  
  <!-- Left green triangle/tent -->
  <path d="M200 130 L150 200 L200 200 Z" fill="#2E8B57" stroke="#2E8B57" stroke-width="2"/>
  
  <!-- Right green triangle/tent -->
  <path d="M200 130 L250 200 L200 200 Z" fill="#2E8B57" stroke="#2E8B57" stroke-width="2"/>
  
  <!-- Brown cross at the peak -->
  <g fill="#8B4513">
    <!-- Vertical beam -->
    <rect x="196" y="115" width="8" height="30"/>
    <!-- Horizontal beam -->
    <rect x="185" y="125" width="30" height="8"/>
    <!-- Top decoration -->
    <path d="M200 110 L203 113 L200 120 L197 113 Z"/>
  </g>
  
  <!-- Brown tent poles -->
  <g fill="#8B4513">
    <!-- Left pole -->
    <rect x="175" y="155" width="5" height="45"/>
    <!-- Right pole -->
    <rect x="220" y="155" width="5" height="45"/>
    <!-- Center support -->
    <rect x="197" y="145" width="6" height="55"/>
    <!-- Cross beam -->
    <rect x="170" y="170" width="60" height="4"/>
  </g>
  
  <!-- Blue water waves -->
  <g stroke="#4169E1" stroke-width="5" fill="none">
    <path d="M 130 220 Q 150 210 170 220 T 210 220 T 250 220 T 270 220"/>
    <path d="M 130 235 Q 150 225 170 235 T 210 235 T 250 235 T 270 235"/>
    <path d="M 130 250 Q 150 240 170 250 T 210 250 T 250 250 T 270 250"/>
    <path d="M 130 265 Q 150 255 170 265 T 210 265 T 250 265 T 270 265"/>
  </g>
  
  <!-- Purple fleur-de-lis at bottom -->
  <g fill="#8B4A9C">
    <!-- Center petal -->
    <path d="M200 280 L195 300 L200 315 L205 300 Z"/>
    <!-- Left petal -->
    <path d="M185 290 L180 305 L185 320 L195 305 Z"/>
    <!-- Right petal -->
    <path d="M215 290 L220 305 L215 320 L205 305 Z"/>
    <!-- Center dot -->
    <circle cx="200" cy="285" r="4"/>
    <!-- Base stem -->
    <rect x="198" y="315" width="4" height="10"/>
  </g>
  
  <!-- Left green laurel wreath -->
  <g fill="#2E8B57" stroke="#2E8B57" stroke-width="1">
    <g transform="translate(90,200) rotate(-30)">
      <!-- Multiple laurel leaves -->
      <ellipse cx="0" cy="-50" rx="8" ry="15" transform="rotate(15)"/>
      <ellipse cx="-5" cy="-35" rx="6" ry="12" transform="rotate(25)"/>
      <ellipse cx="-8" cy="-20" rx="5" ry="10" transform="rotate(35)"/>
      <ellipse cx="-10" cy="-5" rx="4" ry="8" transform="rotate(45)"/>
      <ellipse cx="-10" cy="10" rx="4" ry="8" transform="rotate(55)"/>
      <ellipse cx="-8" cy="25" rx="5" ry="10" transform="rotate(65)"/>
      <ellipse cx="-5" cy="40" rx="6" ry="12" transform="rotate(75)"/>
      <ellipse cx="0" cy="55" rx="8" ry="15" transform="rotate(85)"/>
    </g>
  </g>
  
  <!-- Right green laurel wreath -->
  <g fill="#2E8B57" stroke="#2E8B57" stroke-width="1">
    <g transform="translate(310,200) rotate(30) scale(-1,1)">
      <!-- Multiple laurel leaves -->
      <ellipse cx="0" cy="-50" rx="8" ry="15" transform="rotate(15)"/>
      <ellipse cx="-5" cy="-35" rx="6" ry="12" transform="rotate(25)"/>
      <ellipse cx="-8" cy="-20" rx="5" ry="10" transform="rotate(35)"/>
      <ellipse cx="-10" cy="-5" rx="4" ry="8" transform="rotate(45)"/>
      <ellipse cx="-10" cy="10" rx="4" ry="8" transform="rotate(55)"/>
      <ellipse cx="-8" cy="25" rx="5" ry="10" transform="rotate(65)"/>
      <ellipse cx="-5" cy="40" rx="6" ry="12" transform="rotate(75)"/>
      <ellipse cx="0" cy="55" rx="8" ry="15" transform="rotate(85)"/>
    </g>
  </g>
  
  <!-- Bottom purple decorative elements -->
  <g fill="#8B4A9C">
    <!-- Decorative curved bottom -->
    <path d="M150 330 Q160 340 170 330 Q180 340 190 330 Q200 340 210 330 Q220 340 230 330 Q240 340 250 330"/>
    <!-- Small decorative dots -->
    <circle cx="160" cy="345" r="3"/>
    <circle cx="180" cy="350" r="2"/>
    <circle cx="200" cy="352" r="3"/>
    <circle cx="220" cy="350" r="2"/>
    <circle cx="240" cy="345" r="3"/>
  </g>
</svg>