<svg viewBox="0 0 400 400" xmlns="http://www.w3.org/2000/svg">
  <!-- Outer decorative purple border/frame -->
  <g fill="#8B5A96" stroke="#8B5A96" stroke-width="2">
    <!-- Top decorative elements -->
    <circle cx="200" cy="30" r="8"/>
    <rect x="140" y="20" width="30" height="20" rx="3"/>
    <rect x="230" y="20" width="30" height="20" rx="3"/>
    
    <!-- Side decorative elements -->
    <circle cx="50" cy="120" r="6"/>
    <circle cx="350" cy="120" r="6"/>
    <circle cx="30" cy="200" r="6"/>
    <circle cx="370" cy="200" r="6"/>
    <circle cx="50" cy="280" r="6"/>
    <circle cx="350" cy="280" r="6"/>
    
    <!-- Bottom decorative elements -->
    <rect x="140" y="360" width="30" height="20" rx="3"/>
    <rect x="230" y="360" width="30" height="20" rx="3"/>
    
    <!-- Main decorative border frame -->
    <path d="M60 60 L100 50 L140 60 L170 50 L200 40 L230 50 L260 60 L300 50 L340 60 L350 100 L340 140 L350 170 L360 200 L350 230 L340 260 L350 300 L340 340 L300 350 L260 340 L230 350 L200 360 L170 350 L140 340 L100 350 L60 340 L50 300 L60 260 L50 230 L40 200 L50 170 L60 140 L50 100 Z" 
          fill="none" stroke="#8B5A96" stroke-width="4"/>
  </g>
  
  <!-- Main circular frame with black border -->
  <circle cx="200" cy="200" r="130" fill="white" stroke="#2C3E50" stroke-width="4"/>
  
  <!-- Arabic text on top arc -->
  <defs>
    <path id="top-arc" d="M 100,200 A 100,100 0 0,1 300,200"/>
  </defs>
  <text font-family="Arial, sans-serif" font-size="18" font-weight="bold" fill="#2C3E50" text-anchor="middle">
    <textPath href="#top-arc" startOffset="50%">مطرانية شبرا الخيمة وتوابعها</textPath>
  </text>
  
  <!-- Central tent/mountain design in green -->
  <g fill="#2E8B57" stroke="#2E8B57" stroke-width="2">
    <!-- Left mountain/tent -->
    <path d="M200 120 L160 180 L140 190 L200 190 Z"/>
    <!-- Right mountain/tent -->
    <path d="M200 120 L240 180 L260 190 L200 190 Z"/>
    <!-- Trees/vegetation on sides -->
    <path d="M130 185 L125 195 L135 195 Z"/>
    <path d="M270 185 L265 195 L275 195 Z"/>
  </g>
  
  <!-- Cross in brown at the peak -->
  <g fill="#8B4513">
    <rect x="196" y="105" width="8" height="25"/>
    <rect x="190" y="115" width="20" height="6"/>
    <!-- Small cross detail at top -->
    <path d="M200 100 L202 102 L200 108 L198 102 Z"/>
  </g>
  
  <!-- Central wooden poles in brown -->
  <g fill="#8B4513">
    <rect x="195" y="130" width="6" height="35"/>
    <rect x="199" y="130" width="6" height="35"/>
    <!-- Cross beam -->
    <rect x="185" y="145" width="30" height="4"/>
  </g>
  
  <!-- Water waves in blue -->
  <g stroke="#4169E1" stroke-width="4" fill="none">
    <path d="M 140 220 Q 160 215 180 220 T 220 220 T 260 220"/>
    <path d="M 140 230 Q 160 225 180 230 T 220 230 T 260 230"/>
    <path d="M 140 240 Q 160 235 180 240 T 220 240 T 260 240"/>
    <path d="M 140 250 Q 160 245 180 250 T 220 250 T 260 250"/>
  </g>
  
  <!-- Scout fleur-de-lis at bottom in purple -->
  <g fill="#8B5A96">
    <path d="M200 270 L195 285 L200 295 L205 285 Z"/>
    <path d="M190 280 L185 295 L190 305 L195 295 Z"/>
    <path d="M210 280 L215 295 L210 305 L205 295 Z"/>
    <circle cx="200" cy="275" r="3"/>
  </g>
  
  <!-- Arabic text on bottom arc -->
  <defs>
    <path id="bottom-arc" d="M 300,200 A 100,100 0 0,1 100,200"/>
  </defs>
  <text font-family="Arial, sans-serif" font-size="18" font-weight="bold" fill="#2C3E50" text-anchor="middle">
    <textPath href="#bottom-arc" startOffset="50%">الأمانة العامة للكشافة والمرشدات</textPath>
  </text>
  
  <!-- Green laurel wreaths on sides -->
  <g fill="#2E8B57" stroke="#2E8B57" stroke-width="1">
    <!-- Left wreath -->
    <g transform="translate(70,200)">
      <path d="M0 -60 Q-10 -50 -5 -40 Q0 -45 5 -40 Q10 -50 0 -60"/>
      <path d="M-8 -45 Q-15 -35 -10 -25 Q-5 -30 0 -25 Q5 -35 -8 -45"/>
      <path d="M-12 -20 Q-18 -10 -13 0 Q-8 -5 -3 0 Q2 -10 -12 -20"/>
      <path d="M-15 5 Q-20 15 -15 25 Q-10 20 -5 25 Q0 15 -15 5"/>
      <path d="M-12 30 Q-15 40 -10 50 Q-5 45 0 50 Q8 40 -12 30"/>
      <path d="M-5 55 Q-8 65 -3 70 Q2 65 7 70 Q15 60 -5 55"/>
    </g>
    
    <!-- Right wreath -->
    <g transform="translate(330,200) scale(-1,1)">
      <path d="M0 -60 Q-10 -50 -5 -40 Q0 -45 5 -40 Q10 -50 0 -60"/>
      <path d="M-8 -45 Q-15 -35 -10 -25 Q-5 -30 0 -25 Q5 -35 -8 -45"/>
      <path d="M-12 -20 Q-18 -10 -13 0 Q-8 -5 -3 0 Q2 -10 -12 -20"/>
      <path d="M-15 5 Q-20 15 -15 25 Q-10 20 -5 25 Q0 15 -15 5"/>
      <path d="M-12 30 Q-15 40 -10 50 Q-5 45 0 50 Q8 40 -12 30"/>
      <path d="M-5 55 Q-8 65 -3 70 Q2 65 7 70 Q15 60 -5 55"/>
    </g>
  </g>
  
  <!-- Bottom purple decorative elements -->
  <g fill="#8B5A96">
    <!-- Decorative purple elements at bottom -->
    <path d="M160 340 Q170 350 180 340 Q190 350 200 340 Q210 350 220 340 Q230 350 240 340"/>
    <circle cx="170" cy="355" r="4"/>
    <circle cx="190" cy="365" r="3"/>
    <circle cx="210" cy="365" r="3"/>
    <circle cx="230" cy="355" r="4"/>
  </g>
</svg>